<svg class="styled__StyledPlaceholderIcon-sc-636a7913-3" style="color: rgb(153, 153, 153);" fill="currentColor" height="20" stroke-width="0" width="20" viewBox="0 0 20 20" xmlns="http://www.w3.org/2000/svg"><path d="M6.60256 6.5098C6.60319 4.57088 8.17528 3 10.1135 3C12.0522 3 13.6245 4.57151 13.6245 6.51097C13.6245 8.44971 12.0523 10.0219 10.1135 10.0219H10.091C8.15844 10.015 6.59622 8.44243 6.60256 6.5098ZM6.60256 6.5098C6.60256 6.50941 6.60256 6.50902 6.60256 6.50863L7.25256 6.51097H6.60256C6.60256 6.51058 6.60256 6.51019 6.60256 6.5098ZM10.1135 4.3C8.89267 4.3 7.90256 5.28967 7.90256 6.51097V6.51332C7.89817 7.72792 8.87988 8.71696 10.0946 8.72194H10.1135C11.3343 8.72194 12.3245 7.73174 12.3245 6.51097C12.3245 5.28967 11.3344 4.3 10.1135 4.3ZM7.3212 12.846C6.60078 13.301 6.3 13.8227 6.3 14.2351C6.3 14.428 6.36094 14.5634 6.47703 14.684C6.60855 14.8205 6.83384 14.9587 7.18569 15.0766C7.89596 15.3148 8.92365 15.4072 10.1134 15.4072C11.3087 15.4072 12.3357 15.3115 13.0435 15.0707C13.394 14.9514 13.6184 14.8122 13.7496 14.6747C13.8658 14.553 13.9269 14.4159 13.9269 14.2219C13.9269 13.8124 13.626 13.2939 12.9028 12.8409C12.2001 12.4007 11.2058 12.1012 10.1134 12.1012C9.01516 12.1012 8.02173 12.4034 7.3212 12.846ZM6.62692 11.7469C7.55301 11.1619 8.7913 10.8012 10.1134 10.8012C11.4282 10.8012 12.6657 11.1583 13.5929 11.7392C14.4996 12.3072 15.2269 13.1741 15.2269 14.2219C15.2269 14.7565 15.0327 15.2132 14.6901 15.5722C14.3626 15.9155 13.925 16.144 13.4622 16.3014C12.5434 16.614 11.3386 16.7072 10.1134 16.7072C8.89606 16.7072 7.69202 16.6176 6.77237 16.3092C6.30925 16.1539 5.87004 15.9277 5.54077 15.5858C5.19609 15.228 5 14.7712 5 14.2351C5 13.1896 5.72073 12.3193 6.62692 11.7469Z" fill-rule="evenodd"></path></svg>